<svg width="20" height="20" viewBox="0 0 20 20" fill="none" xmlns="http://www.w3.org/2000/svg">
<path d="M2.5 2.5L17.5 17.5" stroke="white" stroke-width="2" stroke-linecap="round" stroke-linejoin="round"/>
<path d="M8.82 8.82251C8.50727 9.13502 8.33149 9.55897 8.33133 10.0011C8.33117 10.4432 8.50665 10.8673 8.81917 11.18C9.13168 11.4927 9.55563 11.6685 9.99774 11.6687C10.4399 11.6688 10.8639 11.4934 11.1767 11.1808" stroke="white" stroke-width="2" stroke-linecap="round" stroke-linejoin="round"/>
<path d="M14.4642 14.4575C13.105 15.3742 11.6184 15.8333 10 15.8333C6.66669 15.8333 3.88919 13.8892 1.66669 10C2.80752 8.00418 4.09419 6.52084 5.52669 5.54918M7.80252 4.47084C8.51703 4.26644 9.25685 4.16404 10 4.16668C13.3334 4.16668 16.1109 6.11084 18.3334 10C17.685 11.1342 16.99 12.1033 16.2475 12.9067L7.80252 4.47084Z" stroke="white" stroke-width="2" stroke-linecap="round" stroke-linejoin="round"/>
</svg>
