<svg width="30" height="30" viewBox="0 0 30 30" fill="none" xmlns="http://www.w3.org/2000/svg">
<circle cx="15" cy="15" r="15" fill="#0779E4"/>
<path d="M19.7188 19.5078C19.3333 20.0599 18.7943 20.474 18.1016 20.75C17.4141 21.0208 16.612 21.1562 15.6953 21.1562C14.7682 21.1562 13.9453 20.9401 13.2266 20.5078C12.5078 20.0703 11.9505 19.4505 11.5547 18.6484C11.1641 17.8464 10.9635 16.9167 10.9531 15.8594V14.8672C10.9531 13.1536 11.3516 11.8255 12.1484 10.8828C12.9505 9.9401 14.0755 9.46875 15.5234 9.46875C16.7109 9.46875 17.6667 9.77344 18.3906 10.3828C19.1146 10.987 19.5573 11.8464 19.7188 12.9609H18.2188C17.9375 11.4557 17.0417 10.7031 15.5312 10.7031C14.526 10.7031 13.763 11.0573 13.2422 11.7656C12.7266 12.4688 12.4661 13.4896 12.4609 14.8281V15.7578C12.4609 17.0339 12.7526 18.0495 13.3359 18.8047C13.9193 19.5547 14.7083 19.9297 15.7031 19.9297C16.2656 19.9297 16.7578 19.8672 17.1797 19.7422C17.6016 19.6172 17.9505 19.4062 18.2266 19.1094V16.5547H15.5938V15.3359H19.7188V19.5078Z" fill="white"/>
</svg>
